<svg width="0" height="0" xmlns="http://www.w3.org/2000/svg">
  <defs>
    <symbol id="first-steps-java" viewBox="0 0 50 50">
      <path fill="#E56060" d="M12.573 18.512h2.422c-.842 0-1.58.737-1.58 1.58l1.474 14.112 20.85-7.582V26.2l.633-6.108c0-.842-.737-1.58-1.58-1.58h2.422c1.474 0 2.527-1.158 1.896-2.212l-1.895-2.95c-.316-.526-1.053-.84-1.896-.84H14.47c-.843 0-1.58.315-1.897.84l-1.895 2.95c-.632 1.053.316 2.212 1.895 2.212z"/><path fill="#FF6B6B" d="M12.573 18.512h2.422c-.842 0-1.58.737-1.58 1.58l.42 4.212 24.855-9.057-1.264-1.896c-.316-.526-1.053-.84-1.896-.84H14.47c-.843 0-1.58.315-1.897.84l-1.895 2.95c-.632 1.053.316 2.212 1.895 2.212z"/><g fill="#444"><path d="M25.785 7.377c-.382.306-.46.765-.153 1.147.153.23.382.306.688.306.153 0 .382-.076.46-.153.076-.077 1.834-1.377 1.834-4.282 0-2.83-1.76-4.206-1.835-4.206-.383-.307-.842-.23-1.148.152s-.23.918.153 1.147c.076 0 1.147.917 1.147 2.905.077 2.064-1.07 2.905-1.147 2.982zM40.165 15.774l-1.896-2.95c-.528-.84-1.58-1.368-2.74-1.368H14.47c-1.16 0-2.213.527-2.74 1.37l-1.895 2.948c-.42.632-.42 1.474-.105 2.212.527.948 1.58 1.474 2.843 1.474h.105c0 .21-.105.42-.105.527l2.843 27.592c0 1.368.948 2.42 2.106 2.42h14.954c1.158 0 2.106-1.052 2.106-2.42l1.053-10.11c.105-.528-.316-.95-.842-1.054-.527-.105-.948.316-1.053.842l-1.053 10.11v.105c0 .316-.105.527-.21.527H17.522c-.105 0-.21-.21-.21-.632l-.95-9.162H25c.527 0 .948-.42.948-.948A.944.944 0 0 0 25 36.31h-8.74l-.95-9.373h20.537c.527.105.948-.316 1.053-.842l.632-6.108v-.105c0-.21 0-.42-.105-.527h.105c1.264 0 2.317-.527 2.738-1.474.316-.632.316-1.37-.105-2.106zm-4.634 4.212l-.526 5.16h-20.01l-.526-5.16c0-.316.316-.527.527-.527h20.01c.316 0 .526.21.526.526zm3.055-2.95c-.105.212-.527.422-1.053.422H12.68c-.528 0-.95-.21-1.054-.42v-.212l1.896-2.95c.105-.21.527-.42 1.053-.42h20.957c.527 0 .948.21 1.053.42l1.896 2.95a.33.33 0 0 1 .105.21z"/>
    </symbol>

    <symbol id="logica-programacao" viewBox="0 0 50 50">
      <path fill="#c7f464" d="M41.1 23.3c-.1-.4-.6-.5-.9-.3-.5.3-.9.5-1.5.7-1.8.7-3.7.6-5.4 0L10.7 32l2.7 7.3c.4 1 1.5 1.6 2.5 1.2l6.5-2.4c.5-.2.9.3.8.7-.6 2-.4 4.3.9 6.3 1.6 2.7 4.8 4.2 7.9 3.7 5.1-.8 8-6 6.3-10.6-.6-1.6-1.7-2.9-3-3.9-.4-.3-.3-.9.1-1l6.5-2.4c1-.4 1.6-1.5 1.2-2.5l-2-5.1z"/><path fill="#b2db59" d="M36 34.8l-12.8 4.7c-.3 1.8-.1 3.8 1 5.6 1.6 2.7 4.8 4.2 7.9 3.7 5.1-.8 8-6 6.3-10.6-.5-1.4-1.4-2.5-2.4-3.4z"/><path fill="#444" d="M30.7 50c-3.1 0-6.1-1.6-7.7-4.4-1.1-1.9-1.6-4.1-1.2-6.2l-5.6 2c-1.6.6-3.4-.2-4-1.8L5.8 21.9c-.2-.6.1-1.2.7-1.4.6-.2 1.2.1 1.4.7l6.4 17.7c.2.4.7.7 1.1.5L22 37c.6-.2 1.3-.1 1.7.3.5.4.7 1.1.5 1.7-.5 1.8-.3 3.8.7 5.4 1.4 2.3 4.1 3.6 6.8 3.2 2.1-.3 3.8-1.5 4.9-3.3 1-1.8 1.2-3.9.5-5.8-.5-1.4-1.4-2.5-2.6-3.3-.5-.4-.8-1-.7-1.6.1-.6.5-1.2 1.1-1.4l6.5-2.4c.4-.2.7-.7.5-1.1l-1.7-4.6c-.4.2-.7.4-1.1.5-2.3.8-4.8.7-7-.3s-3.9-2.9-4.7-5.2c-1.6-4.6.9-9.9 5.5-11.5l1.2-.3-1.7-4.6c-.2-.4-.6-.7-1.1-.5L13.2 8.9c-.6.2-1.2-.1-1.4-.7-.2-.6.1-1.2.7-1.4L30.7.2c1.6-.6 3.4.2 4 1.8l1.9 5.2c.2.5.1 1-.1 1.4-.3.4-.7.7-1.2.8-.5.1-.9.2-1.3.3-3.4 1.2-5.3 5.2-4.1 8.7.6 1.7 1.9 3.1 3.5 3.9 1.7.8 3.5.9 5.2.2.4-.2.9-.4 1.3-.6.5-.3 1-.3 1.5-.2.5.2.9.5 1 1l1.9 5.2c.3.8.2 1.6-.1 2.4-.3.7-1 1.3-1.7 1.6l-5.6 2c1.2 1 2.1 2.3 2.6 3.8.9 2.6.7 5.4-.7 7.7s-3.7 3.9-6.5 4.4c-.7.2-1.1.2-1.6.2zM22 38.5z"/>
    </symbol>

  </defs>
</svg>